<svg version="1.1" id="Layer_1" xmlns="http://www.w3.org/2000/svg" xmlns:xlink="http://www.w3.org/1999/xlink" x="0px" y="0px"
	 width="100%" viewBox="0 0 500 500" enable-background="new 0 0 500 500" xml:space="preserve">
<path fill="#000000" opacity="1.000000" stroke="none" 
	d="
M334.000000,501.000000 
	C222.666687,501.000000 111.833389,501.000000 1.000059,501.000000 
	C1.000040,334.333405 1.000040,167.666794 1.000020,1.000149 
	C167.666565,1.000099 334.333130,1.000099 500.999756,1.000050 
	C500.999847,167.666519 500.999847,334.333038 500.999939,500.999786 
	C445.500000,501.000000 390.000000,501.000000 334.000000,501.000000 
M248.615891,435.958374 
	C248.784348,435.676086 248.952820,435.393829 249.883942,434.665802 
	C249.923676,433.008057 249.997482,431.350311 249.998215,429.692566 
	C250.016983,387.161072 250.028107,344.629608 250.773560,302.031433 
	C257.994720,297.978638 265.276001,294.028717 272.424500,289.851562 
	C286.999786,281.334656 301.503510,272.695282 316.536499,263.966980 
	C316.700226,263.911316 316.863983,263.855652 317.662598,263.751556 
	C318.765747,262.884583 319.868896,262.017609 321.692596,260.979523 
	C338.027740,251.580215 354.362915,242.180923 371.346893,232.854874 
	C371.911926,232.241104 372.476990,231.627319 372.995789,231.001572 
	C372.995789,231.001572 373.017303,231.044159 373.644165,230.769775 
	C376.516937,228.104401 379.443237,225.469116 379.880585,220.574997 
	C379.915619,199.184555 379.961548,177.794083 379.944855,156.403687 
	C379.944183,155.565109 379.345276,154.726990 379.024994,153.143372 
	C376.434937,149.777512 374.395447,145.700363 371.146637,143.185516 
	C362.962433,136.850250 354.251465,131.192505 345.718506,125.311272 
	C320.420715,107.875061 295.106964,90.462051 269.597412,72.189224 
	C237.208878,72.148766 204.820358,72.101479 172.431824,72.106209 
	C171.597839,72.106323 170.763931,72.676384 169.252838,73.256630 
	C169.409607,75.232346 169.021393,77.499550 169.877930,79.101013 
	C170.718369,80.672424 172.766846,81.652122 174.384018,82.745270 
	C189.689880,93.091515 205.028046,103.390007 220.335236,113.734291 
	C244.621307,130.146317 268.931641,146.522980 293.142792,163.044937 
	C300.602509,168.135529 307.772186,173.651123 314.393036,179.198685 
	C301.911255,186.445145 289.429474,193.691620 276.227356,201.014099 
	C267.576569,206.040253 258.925781,211.066406 250.025406,215.166672 
	C250.015182,196.927765 250.036621,178.688675 249.932892,160.450302 
	C249.924850,159.037292 249.038208,157.629272 248.072754,155.657364 
	C245.775665,155.904114 243.084503,155.458328 241.243164,156.506042 
	C225.001892,165.747345 208.894470,175.224869 192.786011,184.698059 
	C187.082672,188.052139 181.485687,191.587067 175.282379,195.039749 
	C174.915970,195.337860 174.549545,195.635986 174.011963,196.329941 
	C174.011963,196.329941 174.066055,196.757782 173.280411,197.214523 
	C173.187149,197.867157 173.012299,198.519760 173.012192,199.172409 
	C172.999634,276.021362 172.995407,352.870300 173.043365,429.719208 
	C173.044098,430.888733 173.699310,432.057861 174.006134,433.841431 
	C174.648071,434.568878 175.290009,435.296356 176.335663,436.809814 
	C199.586334,436.864227 222.836990,436.926575 246.087677,436.933594 
	C246.762497,436.933777 247.437469,436.349060 248.615891,435.958374 
z"/>
<path fill="#9229FD" opacity="1.000000" stroke="none" 
	d="
M379.131592,221.012787 
	C379.443237,225.469116 376.516937,228.104401 373.303406,230.473846 
	C373.596802,222.774994 370.225433,217.439758 364.419800,213.238770 
	C353.800201,205.554321 343.336426,197.651245 332.626343,190.096359 
	C326.973114,186.108551 320.937592,182.662674 315.074677,178.972122 
	C307.772186,173.651123 300.602509,168.135529 293.142792,163.044937 
	C268.931641,146.522980 244.621307,130.146317 220.335236,113.734291 
	C205.028046,103.390007 189.689880,93.091515 174.384018,82.745270 
	C172.766846,81.652122 170.718369,80.672424 169.877930,79.101013 
	C169.021393,77.499550 169.409607,75.232346 170.064789,73.112602 
	C184.866348,72.911850 198.856033,72.796120 212.845566,72.812805 
	C231.830246,72.835449 250.814819,72.959450 269.799438,73.039970 
	C295.106964,90.462051 320.420715,107.875061 345.718506,125.311272 
	C354.251465,131.192505 362.962433,136.850250 371.146637,143.185516 
	C374.395447,145.700363 376.434937,149.777512 378.976929,153.989456 
	C378.996429,176.894623 379.064026,198.953705 379.131592,221.012787 
z"/>
<path fill="#6303E3" opacity="1.000000" stroke="none" 
	d="
M250.274979,216.092560 
	C258.925781,211.066406 267.576569,206.040253 276.800110,201.244080 
	C281.876312,206.238495 286.149841,211.292267 292.922028,213.692581 
	C290.864441,217.028610 291.054871,219.840744 294.942902,221.761353 
	C295.663116,222.117126 296.447601,223.400040 296.362701,224.161392 
	C295.676758,230.313217 298.464172,235.007919 302.188751,239.482254 
	C304.255524,241.965134 305.937897,244.768021 307.618988,247.176544 
	C309.871307,248.497910 312.231842,249.882767 315.284882,251.673889 
	C309.637024,255.579254 309.555420,258.995697 314.243958,262.386719 
	C314.908508,262.867340 315.442352,263.528656 316.036682,264.106384 
	C301.503510,272.695282 286.999786,281.334656 272.424500,289.851562 
	C265.276001,294.028717 257.994720,297.978638 250.194916,302.143860 
	C249.328781,302.586456 249.041306,302.916626 248.556870,303.259155 
	C248.359909,303.271515 248.035721,303.495056 247.664032,303.566040 
	C241.064621,307.168121 234.799057,310.634399 228.616974,314.243713 
	C215.252106,322.046478 201.930038,329.922546 188.257568,337.843384 
	C182.107956,340.610748 176.952637,344.018372 174.415161,349.857025 
	C174.336899,320.564209 174.337433,291.755676 174.601288,262.763123 
	C177.198517,260.264496 179.190735,257.385437 181.924164,255.731033 
	C195.237152,247.673401 208.748352,239.943253 222.530792,232.033783 
	C231.589767,226.874680 240.307327,221.779007 249.263977,216.668045 
	C249.792267,216.509979 250.049576,216.323242 250.274979,216.092560 
z"/>
<path fill="#6203DD" opacity="1.000000" stroke="none" 
	d="
M316.286591,264.036682 
	C315.442352,263.528656 314.908508,262.867340 314.243958,262.386719 
	C309.555420,258.995697 309.637024,255.579254 315.284882,251.673889 
	C312.231842,249.882767 309.871307,248.497910 307.618988,247.176544 
	C305.937897,244.768021 304.255524,241.965134 302.188751,239.482254 
	C298.464172,235.007919 295.676758,230.313217 296.362701,224.161392 
	C296.447601,223.400040 295.663116,222.117126 294.942902,221.761353 
	C291.054871,219.840744 290.864441,217.028610 292.922028,213.692581 
	C286.149841,211.292267 281.876312,206.238495 277.160278,201.206085 
	C289.429474,193.691620 301.911255,186.445145 314.733856,179.085403 
	C320.937592,182.662674 326.973114,186.108551 332.626343,190.096359 
	C343.336426,197.651245 353.800201,205.554321 364.419800,213.238770 
	C370.225433,217.439758 373.596802,222.774994 372.989960,230.611053 
	C373.017303,231.044159 372.995789,231.001572 372.710083,231.044769 
	C371.848907,231.652527 371.273499,232.217087 370.698059,232.781631 
	C354.362915,242.180923 338.027740,251.580215 321.014343,261.088623 
	C319.233337,262.065125 318.130524,262.932526 317.027740,263.799957 
	C316.863983,263.855652 316.700226,263.911316 316.286591,264.036682 
z"/>
<path fill="#0596E9" opacity="1.000000" stroke="none" 
	d="
M249.024902,216.683350 
	C240.307327,221.779007 231.589767,226.874680 222.219330,231.852081 
	C216.823761,230.079880 212.070160,228.165909 208.064911,231.951630 
	C205.205124,230.901917 202.388718,228.750305 200.181030,229.256027 
	C191.734207,231.190994 182.724686,227.753647 174.511658,231.746307 
	C174.281189,219.817551 174.173615,208.287659 174.066055,196.757782 
	C174.066055,196.757782 174.011963,196.329941 174.337250,196.082489 
	C175.055069,195.569824 175.447601,195.304611 175.840134,195.039413 
	C181.485687,191.587067 187.082672,188.052139 192.786011,184.698059 
	C208.894470,175.224869 225.001892,165.747345 241.243164,156.506042 
	C243.084503,155.458328 245.775665,155.904114 248.418152,156.382385 
	C248.850677,176.966049 248.937790,196.824707 249.024902,216.683350 
z"/>
<path fill="#F1FEFF" opacity="1.000000" stroke="none" 
	d="
M173.673233,196.986145 
	C174.173615,208.287659 174.281189,219.817551 174.389557,232.190033 
	C174.372894,243.004150 174.355423,252.975647 174.337952,262.947144 
	C174.337433,291.755676 174.336899,320.564209 174.332458,350.281403 
	C174.431702,367.787842 174.534851,384.385651 174.516617,401.438660 
	C174.476212,412.286407 174.557190,422.678925 174.463516,433.006775 
	C174.288864,432.942108 174.049072,433.227173 174.049072,433.227173 
	C173.699310,432.057861 173.044098,430.888733 173.043365,429.719208 
	C172.995407,352.870300 172.999634,276.021362 173.012192,199.172409 
	C173.012299,198.519760 173.187149,197.867157 173.673233,196.986145 
z"/>
<path fill="#9BDCF5" opacity="1.000000" stroke="none" 
	d="
M248.753830,303.246796 
	C249.041306,302.916626 249.328781,302.586456 249.828430,302.177185 
	C250.028107,344.629608 250.016983,387.161072 249.998215,429.692566 
	C249.997482,431.350311 249.923676,433.008057 249.348495,434.756683 
	C248.813049,434.847565 248.502670,434.586060 248.510742,434.408691 
	C248.518799,434.231323 248.519974,433.876251 248.655930,433.433655 
	C248.849640,407.207336 248.947418,381.423645 248.951233,355.639923 
	C248.953812,338.175537 248.824280,320.711182 248.753830,303.246796 
z"/>
<path fill="#F1FEFF" opacity="1.000000" stroke="none" 
	d="
M269.698425,72.614594 
	C250.814819,72.959450 231.830246,72.835449 212.845566,72.812805 
	C198.856033,72.796120 184.866348,72.911850 170.403351,72.974609 
	C170.763931,72.676384 171.597839,72.106323 172.431824,72.106209 
	C204.820358,72.101479 237.208878,72.148766 269.698425,72.614594 
z"/>
<path fill="#059FF6" opacity="1.000000" stroke="none" 
	d="
M175.931946,436.023804 
	C175.290009,435.296356 174.648071,434.568878 174.027603,433.534302 
	C174.049072,433.227173 174.288864,432.942108 174.783920,433.121399 
	C177.817245,433.860962 180.352127,434.889313 182.894333,434.907776 
	C204.320129,435.063751 225.747269,435.035034 247.100555,435.272308 
	C247.027130,435.482788 246.895508,435.908752 246.433899,435.931580 
	C222.625504,435.977570 199.278732,436.000702 175.931946,436.023804 
z"/>
<path fill="#F1FEFF" opacity="1.000000" stroke="none" 
	d="
M176.133804,436.416809 
	C199.278732,436.000702 222.625504,435.977570 246.735977,435.991547 
	C247.703903,436.031464 247.908127,436.034271 248.112366,436.037048 
	C247.437469,436.349060 246.762497,436.933777 246.087677,436.933594 
	C222.836990,436.926575 199.586334,436.864227 176.133804,436.416809 
z"/>
<path fill="#F1FEFF" opacity="1.000000" stroke="none" 
	d="
M379.506104,220.793884 
	C379.064026,198.953705 378.996429,176.894623 378.976990,154.362091 
	C379.345276,154.726990 379.944183,155.565109 379.944855,156.403687 
	C379.961548,177.794083 379.915619,199.184555 379.506104,220.793884 
z"/>
<path fill="#9BDCF5" opacity="1.000000" stroke="none" 
	d="
M249.263977,216.668060 
	C248.937790,196.824707 248.850677,176.966049 248.661743,156.663177 
	C249.038208,157.629272 249.924850,159.037292 249.932892,160.450302 
	C250.036621,178.688675 250.015182,196.927765 250.150192,215.629608 
	C250.049576,216.323242 249.792267,216.509979 249.263977,216.668060 
z"/>
<path fill="#6303E3" opacity="1.000000" stroke="none" 
	d="
M317.345154,263.775757 
	C318.130524,262.932526 319.233337,262.065125 320.654083,261.174194 
	C319.868896,262.017609 318.765747,262.884583 317.345154,263.775757 
z"/>
<path fill="#9229FD" opacity="1.000000" stroke="none" 
	d="
M371.022461,232.818253 
	C371.273499,232.217087 371.848907,231.652527 372.733185,231.050751 
	C372.476990,231.627319 371.911926,232.241104 371.022461,232.818253 
z"/>
<path fill="#049AF1" opacity="1.000000" stroke="none" 
	d="
M175.561249,195.039581 
	C175.447601,195.304611 175.055069,195.569824 174.422836,195.884567 
	C174.549545,195.635986 174.915970,195.337860 175.561249,195.039581 
z"/>
<path fill="#9BDCF5" opacity="1.000000" stroke="none" 
	d="
M248.364136,435.997711 
	C247.908127,436.034271 247.703903,436.031464 247.197586,435.968689 
	C246.895508,435.908752 247.027130,435.482788 247.331299,435.222168 
	C247.911041,434.805206 248.200104,434.680054 248.502670,434.586060 
	C248.502670,434.586060 248.813049,434.847565 248.967163,434.979553 
	C248.952820,435.393829 248.784348,435.676086 248.364136,435.997711 
z"/>
<path fill="#059FF6" opacity="1.000000" stroke="none" 
	d="
M174.638000,400.983429 
	C174.534851,384.385651 174.431702,367.787842 174.411255,350.765686 
	C176.952637,344.018372 182.107956,340.610748 188.626816,338.013672 
	C193.376160,338.543976 197.464645,338.750946 201.459412,339.474976 
	C205.832077,340.267456 210.080246,342.181915 214.451431,342.439148 
	C220.109711,342.772156 226.090683,342.848267 231.449722,341.330017 
	C235.493103,340.184509 238.290115,340.147278 240.472458,343.409393 
	C242.479752,346.409821 244.715195,347.329956 247.982635,346.474854 
	C247.983292,355.635529 247.979630,364.328247 247.658936,373.129150 
	C243.717850,381.444611 237.659805,380.761566 230.507996,377.519653 
	C228.403656,381.595428 225.397278,382.676483 221.620895,379.275787 
	C221.411545,379.087280 220.981964,379.102478 220.652985,379.093597 
	C207.411850,378.736969 194.171265,378.353027 180.928635,378.062744 
	C177.407562,377.985535 175.875793,379.916046 175.982040,383.435150 
	C176.102524,387.426086 176.142090,391.430817 175.937592,395.415222 
	C175.841446,397.288574 175.091614,399.128418 174.638000,400.983429 
z"/>
<path fill="#049AF1" opacity="1.000000" stroke="none" 
	d="
M247.978302,346.006866 
	C244.715195,347.329956 242.479752,346.409821 240.472458,343.409393 
	C238.290115,340.147278 235.493103,340.184509 231.449722,341.330017 
	C226.090683,342.848267 220.109711,342.772156 214.451431,342.439148 
	C210.080246,342.181915 205.832077,340.267456 201.459412,339.474976 
	C197.464645,338.750946 193.376160,338.543976 188.959732,337.938904 
	C201.930038,329.922546 215.252106,322.046478 228.616974,314.243713 
	C234.799057,310.634399 241.064621,307.168121 247.652374,304.081726 
	C248.001022,318.353271 247.989670,332.180054 247.978302,346.006866 
z"/>
<path fill="#049AF1" opacity="1.000000" stroke="none" 
	d="
M174.601288,262.763123 
	C174.355423,252.975647 174.372894,243.004150 174.512451,232.588913 
	C182.724686,227.753647 191.734207,231.190994 200.181030,229.256027 
	C202.388718,228.750305 205.205124,230.901917 208.064911,231.951630 
	C212.070160,228.165909 216.823761,230.079880 221.877930,231.915497 
	C208.748352,239.943253 195.237152,247.673401 181.924164,255.731033 
	C179.190735,257.385437 177.198517,260.264496 174.601288,262.763123 
z"/>
<path fill="#0596E9" opacity="1.000000" stroke="none" 
	d="
M247.982635,346.474854 
	C247.989670,332.180054 248.001022,318.353271 248.024048,304.010742 
	C248.035721,303.495056 248.359909,303.271515 248.556870,303.259155 
	C248.824280,320.711182 248.953812,338.175537 248.951233,355.639923 
	C248.947418,381.423645 248.849640,407.207336 248.536804,433.051392 
	C248.179810,413.081482 248.077881,393.051239 247.975967,373.020966 
	C247.979630,364.328247 247.983292,355.635529 247.982635,346.474854 
z"/>
<path fill="#00A2FE" opacity="1.000000" stroke="none" 
	d="
M247.658936,373.129150 
	C248.077881,393.051239 248.179810,413.081482 248.400848,433.494019 
	C248.519974,433.876251 248.518799,434.231323 248.510742,434.408691 
	C248.200104,434.680054 247.911041,434.805206 247.404724,435.011719 
	C225.747269,435.035034 204.320129,435.063751 182.894333,434.907776 
	C180.352127,434.889313 177.817245,433.860962 174.958572,433.186096 
	C174.557190,422.678925 174.476212,412.286407 174.516602,401.438660 
	C175.091614,399.128418 175.841446,397.288574 175.937592,395.415222 
	C176.142090,391.430817 176.102524,387.426086 175.982040,383.435150 
	C175.875793,379.916046 177.407562,377.985535 180.928635,378.062744 
	C194.171265,378.353027 207.411850,378.736969 220.652985,379.093597 
	C220.981964,379.102478 221.411545,379.087280 221.620895,379.275787 
	C225.397278,382.676483 228.403656,381.595428 230.507996,377.519653 
	C237.659805,380.761566 243.717850,381.444611 247.658936,373.129150 
z"/>
</svg>